<svg width="158" height="158" viewBox="0 0 158 158" fill="none" xmlns="http://www.w3.org/2000/svg">
<path d="M148.562 9.15857C149.078 9.15857 149.496 8.74031 149.496 8.22437C149.496 7.70842 149.078 7.29016 148.562 7.29016C148.046 7.29016 147.628 7.70842 147.628 8.22437C147.628 8.74031 148.046 9.15857 148.562 9.15857Z" fill="white"/>
<path d="M151.687 12.057C152.203 12.057 152.621 11.6387 152.621 11.1228C152.621 10.6069 152.203 10.1886 151.687 10.1886C151.171 10.1886 150.752 10.6069 150.752 11.1228C150.752 11.6387 151.171 12.057 151.687 12.057Z" fill="white"/>
<path d="M149.496 14.2479C149.496 13.732 149.078 13.3137 148.562 13.3137C148.292 13.3137 148.051 13.4298 147.881 13.6126C147.467 12.9114 146.97 12.2656 146.402 11.6896C146.523 11.532 146.598 11.3372 146.598 11.1229C146.598 10.6069 146.18 10.1887 145.664 10.1887C145.391 10.1887 145.147 10.3081 144.976 10.4949C143.393 9.40326 141.477 8.76208 139.413 8.76208H18.5875C13.1697 8.76208 8.76198 13.1698 8.76198 18.5877V139.413C8.76198 144.75 13.0399 149.104 18.3463 149.232C18.2786 149.362 18.2366 149.507 18.2366 149.663C18.2366 150.179 18.6549 150.597 19.1708 150.597C19.6868 150.597 20.1051 150.179 20.1051 149.663C20.1051 149.509 20.0643 149.366 19.9985 149.239H24.3664C24.3006 149.367 24.2598 149.509 24.2598 149.663C24.2598 150.179 24.6781 150.597 25.194 150.597C25.71 150.597 26.1283 150.179 26.1283 149.663C26.1283 149.509 26.0878 149.366 26.022 149.239H30.3896C30.3238 149.367 30.2834 149.509 30.2834 149.663C30.2834 150.179 30.7016 150.597 31.2176 150.597C31.7335 150.597 32.1518 150.179 32.1518 149.663C32.1518 149.509 32.1114 149.366 32.0455 149.239H36.4131C36.3473 149.367 36.3066 149.509 36.3066 149.663C36.3066 150.179 36.7248 150.597 37.2408 150.597C37.7567 150.597 38.1753 150.179 38.1753 149.663C38.1753 149.509 38.1346 149.366 38.069 149.239H42.4366C42.3708 149.367 42.3304 149.509 42.3304 149.663C42.3304 150.179 42.7486 150.597 43.2646 150.597C43.7805 150.597 44.1988 150.179 44.1988 149.663C44.1988 149.509 44.1581 149.366 44.0925 149.239H48.4601C48.3943 149.367 48.3536 149.509 48.3536 149.663C48.3536 150.179 48.7718 150.597 49.2878 150.597C49.8037 150.597 50.222 150.179 50.222 149.663C50.222 149.509 50.1813 149.366 50.1157 149.239H54.4833C54.4175 149.367 54.3768 149.509 54.3768 149.663C54.3768 150.179 54.7951 150.597 55.311 150.597C55.8272 150.597 56.2452 150.179 56.2452 149.663C56.2452 149.509 56.2045 149.366 56.139 149.239H60.5065C60.4407 149.367 60.4003 149.509 60.4003 149.663C60.4003 150.179 60.8186 150.597 61.3345 150.597C61.8505 150.597 62.2687 150.179 62.2687 149.663C62.2687 149.509 62.228 149.366 62.1625 149.239H66.5301C66.4642 149.367 66.4238 149.509 66.4238 149.663C66.4238 150.179 66.8421 150.597 67.358 150.597C67.874 150.597 68.2922 150.179 68.2922 149.663C68.2922 149.509 68.2515 149.366 68.186 149.239H72.5536C72.4877 149.367 72.447 149.509 72.447 149.663C72.447 150.179 72.8653 150.597 73.3812 150.597C73.8972 150.597 74.3154 150.179 74.3154 149.663C74.3154 149.509 74.2747 149.366 74.2092 149.239H78.5768C78.5109 149.367 78.4702 149.509 78.4702 149.663C78.4702 150.179 78.8885 150.597 79.4044 150.597C79.9204 150.597 80.3389 150.179 80.3389 149.663C80.3389 149.509 80.2982 149.366 80.2324 149.239H84.6C84.5341 149.367 84.4937 149.509 84.4937 149.663C84.4937 150.179 84.912 150.597 85.4283 150.597C85.9442 150.597 86.3625 150.179 86.3625 149.663C86.3625 149.509 86.3217 149.366 86.2562 149.239H90.6238C90.558 149.367 90.5175 149.509 90.5175 149.663C90.5175 150.179 90.9358 150.597 91.4518 150.597C91.9677 150.597 92.386 150.179 92.386 149.663C92.386 149.509 92.3452 149.366 92.2797 149.239H96.6473C96.5815 149.367 96.5411 149.509 96.5411 149.663C96.5411 150.179 96.9593 150.597 97.4753 150.597C97.9912 150.597 98.4095 150.179 98.4095 149.663C98.4095 149.509 98.3691 149.366 98.3032 149.239H102.671C102.605 149.367 102.565 149.509 102.565 149.663C102.565 150.179 102.983 150.597 103.499 150.597C104.015 150.597 104.433 150.179 104.433 149.663C104.433 149.509 104.393 149.366 104.327 149.239H108.694C108.628 149.367 108.588 149.509 108.588 149.663C108.588 150.179 109.006 150.597 109.522 150.597C110.038 150.597 110.457 150.179 110.457 149.663C110.457 149.509 110.416 149.366 110.351 149.239H114.718C114.652 149.367 114.612 149.509 114.612 149.663C114.612 150.179 115.03 150.597 115.546 150.597C116.062 150.597 116.48 150.179 116.48 149.663C116.48 149.509 116.44 149.366 116.374 149.239H120.742C120.676 149.367 120.635 149.509 120.635 149.663C120.635 150.179 121.054 150.597 121.57 150.597C122.086 150.597 122.504 150.179 122.504 149.663C122.504 149.509 122.463 149.366 122.398 149.239H126.765C126.699 149.367 126.659 149.509 126.659 149.663C126.659 150.179 127.077 150.597 127.593 150.597C128.109 150.597 128.527 150.179 128.527 149.663C128.527 149.509 128.487 149.366 128.421 149.239H132.789C132.723 149.367 132.682 149.509 132.682 149.663C132.682 150.179 133.101 150.597 133.617 150.597C134.133 150.597 134.551 150.179 134.551 149.663C134.551 149.509 134.51 149.366 134.445 149.239H138.812C138.746 149.367 138.706 149.509 138.706 149.663C138.706 150.179 139.124 150.597 139.64 150.597C140.156 150.597 140.575 150.179 140.575 149.663C140.575 149.487 140.523 149.325 140.439 149.185C144.658 148.745 148.088 145.625 148.999 141.562C149.294 141.405 149.496 141.098 149.496 140.741C149.496 140.479 149.388 140.242 149.214 140.073C149.228 139.854 149.239 139.635 149.239 139.413V135.359C149.397 135.191 149.497 134.966 149.497 134.717C149.497 134.468 149.398 134.243 149.239 134.075V129.335C149.397 129.168 149.497 128.943 149.497 128.693C149.497 128.444 149.398 128.219 149.239 128.052V123.312C149.397 123.144 149.497 122.919 149.497 122.67C149.497 122.421 149.398 122.196 149.239 122.028V117.288C149.397 117.121 149.497 116.896 149.497 116.647C149.497 116.397 149.398 116.172 149.239 116.005V111.265C149.397 111.097 149.497 110.872 149.497 110.623C149.497 110.374 149.398 110.149 149.239 109.981V105.241C149.397 105.074 149.497 104.849 149.497 104.6C149.497 104.35 149.398 104.125 149.239 103.958V99.2178C149.397 99.0503 149.497 98.8253 149.497 98.576C149.497 98.3271 149.398 98.102 149.239 97.9345V93.1946C149.397 93.0271 149.497 92.8021 149.497 92.5528C149.497 92.3036 149.398 92.0785 149.239 91.911V87.1711C149.397 87.0036 149.497 86.7785 149.497 86.5293C149.497 86.2803 149.398 86.0553 149.239 85.8878V81.1479C149.397 80.9804 149.497 80.7553 149.497 80.5061C149.497 80.2568 149.398 80.0318 149.239 79.8643V75.1243C149.397 74.9569 149.497 74.7318 149.497 74.4825C149.497 74.2333 149.398 74.0083 149.239 73.8408V69.1008C149.397 68.9333 149.497 68.7083 149.497 68.459C149.497 68.2101 149.398 67.985 149.239 67.8172V63.0773C149.397 62.9098 149.497 62.6847 149.497 62.4355C149.497 62.1863 149.398 61.9612 149.239 61.7937V57.0538C149.397 56.8863 149.497 56.6612 149.497 56.412C149.497 56.1627 149.398 55.9377 149.239 55.7702V51.0302C149.397 50.8628 149.497 50.6377 149.497 50.3885C149.497 50.1395 149.398 49.9145 149.239 49.7467V45.0067C149.397 44.8392 149.497 44.6142 149.497 44.3649C149.497 44.116 149.398 43.8906 149.239 43.7231V38.9832C149.397 38.8157 149.497 38.5907 149.497 38.3414C149.497 38.0922 149.398 37.8671 149.239 37.6996V32.9597C149.397 32.7922 149.497 32.5671 149.497 32.3179C149.497 32.0686 149.398 31.8436 149.239 31.6761V26.9362C149.397 26.7687 149.497 26.5436 149.497 26.2944C149.497 26.0454 149.398 25.8204 149.239 25.6529V20.9129C149.397 20.7454 149.497 20.5204 149.497 20.2711C149.497 20.0219 149.398 19.7968 149.239 19.6294V18.5871C149.239 17.388 149.022 16.2388 148.627 15.1754C149.111 15.142 149.496 14.7418 149.496 14.2479V14.2479ZM146.781 139.413C146.781 140.619 146.488 141.756 145.973 142.762C145.876 142.727 145.772 142.705 145.663 142.705C145.147 142.705 144.729 143.123 144.729 143.639C144.729 143.875 144.819 144.087 144.963 144.251C144.381 144.918 143.683 145.479 142.899 145.903C142.788 145.856 142.666 145.83 142.538 145.83C142.142 145.83 141.805 146.078 141.67 146.426C140.958 146.656 140.2 146.781 139.413 146.781H137.448C137.448 146.776 137.449 146.77 137.449 146.764C137.449 146.248 137.031 145.83 136.515 145.83C135.999 145.83 135.581 146.248 135.581 146.764C135.581 146.77 135.582 146.775 135.583 146.781H131.425C131.425 146.776 131.426 146.77 131.426 146.764C131.426 146.248 131.008 145.83 130.492 145.83C129.976 145.83 129.558 146.248 129.558 146.764C129.558 146.77 129.559 146.775 129.56 146.781H125.401C125.401 146.776 125.403 146.77 125.403 146.764C125.403 146.248 124.985 145.83 124.469 145.83C123.953 145.83 123.535 146.248 123.535 146.764C123.535 146.77 123.536 146.775 123.537 146.781H119.378C119.378 146.776 119.38 146.77 119.38 146.764C119.38 146.248 118.962 145.83 118.446 145.83C117.93 145.83 117.512 146.248 117.512 146.764C117.512 146.77 117.513 146.775 117.513 146.781H113.355C113.355 146.776 113.357 146.77 113.357 146.764C113.357 146.248 112.939 145.83 112.423 145.83C111.907 145.83 111.488 146.248 111.488 146.764C111.488 146.77 111.49 146.775 111.49 146.781H107.332C107.332 146.776 107.334 146.77 107.334 146.764C107.334 146.248 106.916 145.83 106.4 145.83C105.884 145.83 105.465 146.248 105.465 146.764C105.465 146.77 105.467 146.775 105.467 146.781H101.309C101.309 146.776 101.311 146.77 101.311 146.764C101.311 146.248 100.892 145.83 100.376 145.83C99.8602 145.83 99.442 146.248 99.442 146.764C99.442 146.77 99.4435 146.775 99.4438 146.781H95.2853C95.2853 146.776 95.2872 146.77 95.2872 146.764C95.2872 146.248 94.8689 145.83 94.353 145.83C93.837 145.83 93.4188 146.248 93.4188 146.764C93.4188 146.77 93.4203 146.775 93.4203 146.781H89.2621C89.2621 146.776 89.264 146.77 89.264 146.764C89.264 146.248 88.8457 145.83 88.3298 145.83C87.8138 145.83 87.3956 146.248 87.3956 146.764C87.3956 146.77 87.3971 146.775 87.3971 146.781H83.2389C83.2389 146.776 83.2405 146.77 83.2405 146.764C83.2405 146.248 82.8222 145.83 82.3063 145.83C81.7903 145.83 81.3717 146.248 81.3717 146.764C81.3717 146.77 81.3733 146.775 81.3736 146.781H77.2154C77.2154 146.776 77.217 146.77 77.217 146.764C77.217 146.248 76.7987 145.83 76.2827 145.83C75.7668 145.83 75.3485 146.248 75.3485 146.764C75.3485 146.77 75.3501 146.775 75.3504 146.781H71.1922C71.1925 146.776 71.1941 146.77 71.1941 146.764C71.1941 146.248 70.7758 145.83 70.2599 145.83C69.7439 145.83 69.3256 146.248 69.3256 146.764C69.3256 146.77 69.3272 146.775 69.3272 146.781H65.169C65.169 146.776 65.1709 146.77 65.1709 146.764C65.1709 146.248 64.7526 145.83 64.2366 145.83C63.7207 145.83 63.3024 146.248 63.3024 146.764C63.3024 146.77 63.304 146.775 63.3043 146.781H59.1461C59.1461 146.776 59.148 146.77 59.148 146.764C59.148 146.248 58.7297 145.83 58.2137 145.83C57.6978 145.83 57.2792 146.248 57.2792 146.764C57.2792 146.77 57.2808 146.775 57.2811 146.781H53.1229C53.1232 146.776 53.1247 146.77 53.1247 146.764C53.1247 146.248 52.7065 145.83 52.1905 145.83C51.6743 145.83 51.2563 146.248 51.2563 146.764C51.2563 146.77 51.2579 146.775 51.2582 146.781H47.0954C47.0957 146.776 47.0973 146.77 47.0973 146.764C47.0973 146.248 46.679 145.83 46.163 145.83C45.6468 145.83 45.2288 146.248 45.2288 146.764C45.2288 146.77 45.2304 146.775 45.2307 146.781H41.0725C41.0725 146.776 41.0744 146.77 41.0744 146.764C41.0744 146.248 40.6561 145.83 40.1401 145.83C39.6242 145.83 39.2059 146.248 39.2059 146.764C39.2059 146.77 39.2075 146.775 39.2078 146.781H35.0496C35.0499 146.776 35.0515 146.77 35.0515 146.764C35.0515 146.248 34.6332 145.83 34.1173 145.83C33.6013 145.83 33.183 146.248 33.183 146.764C33.183 146.77 33.1846 146.775 33.1846 146.781H29.0264C29.0264 146.776 29.0279 146.77 29.0279 146.764C29.0279 146.248 28.6097 145.83 28.0937 145.83C27.5778 145.83 27.1595 146.248 27.1595 146.764C27.1595 146.77 27.1611 146.775 27.1614 146.781H23.0032C23.0032 146.776 23.0047 146.77 23.0047 146.764C23.0047 146.248 22.5865 145.83 22.0705 145.83C21.5546 145.83 21.1363 146.248 21.1363 146.764C21.1363 146.77 21.1379 146.775 21.1379 146.781H18.5888C18.0306 146.781 17.4874 146.717 16.9647 146.599C16.8863 146.162 16.5063 145.83 16.047 145.83C15.8091 145.83 15.5945 145.922 15.4294 146.068C14.6382 145.691 13.9251 145.177 13.3197 144.556C13.7539 144.476 14.0831 144.097 14.0831 143.639C14.0831 143.123 13.6648 142.705 13.1489 142.705C12.7719 142.705 12.4492 142.929 12.3016 143.251C11.6163 142.132 11.2207 140.818 11.2207 139.413V18.5874C11.2207 14.5244 14.5261 11.219 18.5891 11.219H139.414C143.477 11.219 146.783 14.5244 146.783 18.5874V139.413H146.781V139.413Z" fill="white"/>
<path d="M151.687 18.0805C152.203 18.0805 152.621 17.6623 152.621 17.146C152.621 16.6301 152.203 16.2118 151.687 16.2118C151.171 16.2118 150.752 16.6301 150.752 17.146C150.752 17.6623 151.171 18.0805 151.687 18.0805Z" fill="white"/>
<path d="M151.687 24.1041C152.203 24.1041 152.621 23.6859 152.621 23.1699C152.621 22.654 152.203 22.2357 151.687 22.2357C151.171 22.2357 150.752 22.654 150.752 23.1699C150.752 23.6859 151.171 24.1041 151.687 24.1041Z" fill="white"/>
<path d="M151.687 30.1276C152.203 30.1276 152.621 29.7093 152.621 29.1934C152.621 28.6774 152.203 28.2592 151.687 28.2592C151.171 28.2592 150.752 28.6774 150.752 29.1934C150.752 29.7093 151.171 30.1276 151.687 30.1276Z" fill="white"/>
<path d="M151.687 36.1512C152.203 36.1512 152.621 35.7326 152.621 35.2167C152.621 34.7007 152.203 34.2825 151.687 34.2825C151.171 34.2825 150.752 34.7007 150.752 35.2167C150.752 35.7326 151.171 36.1512 151.687 36.1512Z" fill="white"/>
<path d="M151.687 42.1743C152.203 42.1743 152.621 41.756 152.621 41.2401C152.621 40.7242 152.203 40.3059 151.687 40.3059C151.171 40.3059 150.752 40.7242 150.752 41.2401C150.752 41.7564 151.171 42.1743 151.687 42.1743Z" fill="white"/>
<path d="M151.687 48.1978C152.203 48.1978 152.621 47.7795 152.621 47.2635C152.621 46.7473 152.203 46.3293 151.687 46.3293C151.171 46.3293 150.752 46.7476 150.752 47.2635C150.752 47.7795 151.171 48.1978 151.687 48.1978Z" fill="white"/>
<path d="M151.687 54.2211C152.203 54.2211 152.621 53.8028 152.621 53.2869C152.621 52.7709 152.203 52.3527 151.687 52.3527C151.171 52.3527 150.752 52.7709 150.752 53.2869C150.752 53.8031 151.171 54.2211 151.687 54.2211Z" fill="white"/>
<path d="M151.687 60.2449C152.203 60.2449 152.621 59.8267 152.621 59.3107C152.621 58.7945 152.203 58.3762 151.687 58.3762C151.171 58.3762 150.752 58.7945 150.752 59.3107C150.752 59.8267 151.171 60.2449 151.687 60.2449Z" fill="white"/>
<path d="M151.687 66.2681C152.203 66.2681 152.621 65.8498 152.621 65.3339C152.621 64.8179 152.203 64.3997 151.687 64.3997C151.171 64.3997 150.753 64.8179 150.753 65.3339C150.753 65.8498 151.171 66.2681 151.687 66.2681Z" fill="white"/>
<path d="M151.687 72.2916C152.203 72.2916 152.621 71.8734 152.621 71.3574C152.621 70.8415 152.203 70.4232 151.687 70.4232C151.171 70.4232 150.753 70.8415 150.753 71.3574C150.753 71.8734 151.171 72.2916 151.687 72.2916Z" fill="white"/>
<path d="M151.687 78.3155C152.203 78.3155 152.621 77.8972 152.621 77.3813C152.621 76.865 152.203 76.4468 151.687 76.4468C151.171 76.4468 150.752 76.865 150.752 77.3813C150.752 77.8969 151.171 78.3155 151.687 78.3155Z" fill="white"/>
<path d="M151.687 84.3388C152.203 84.3388 152.621 83.9205 152.621 83.4045C152.621 82.8886 152.203 82.4703 151.687 82.4703C151.171 82.4703 150.752 82.8886 150.752 83.4045C150.752 83.9205 151.171 84.3388 151.687 84.3388Z" fill="white"/>
<path d="M151.687 90.3623C152.203 90.3623 152.621 89.944 152.621 89.4277C152.621 88.9118 152.203 88.4935 151.687 88.4935C151.171 88.4935 150.752 88.9118 150.752 89.4277C150.752 89.944 151.171 90.3623 151.687 90.3623Z" fill="white"/>
<path d="M151.687 96.3855C152.203 96.3855 152.621 95.9672 152.621 95.4513C152.621 94.9353 152.203 94.5171 151.687 94.5171C151.171 94.5171 150.753 94.9353 150.753 95.4513C150.753 95.9672 151.171 96.3855 151.687 96.3855Z" fill="white"/>
<path d="M151.687 102.409C152.203 102.409 152.621 101.991 152.621 101.475C152.621 100.958 152.203 100.541 151.687 100.541C151.171 100.541 150.752 100.959 150.752 101.475C150.752 101.991 151.171 102.409 151.687 102.409Z" fill="white"/>
<path d="M151.687 108.433C152.203 108.433 152.621 108.014 152.621 107.498C152.621 106.982 152.203 106.564 151.687 106.564C151.171 106.564 150.752 106.982 150.752 107.498C150.752 108.014 151.171 108.433 151.687 108.433Z" fill="white"/>
<path d="M151.687 114.456C152.203 114.456 152.621 114.038 152.621 113.522C152.621 113.006 152.203 112.588 151.687 112.588C151.171 112.588 150.753 113.006 150.753 113.522C150.753 114.038 151.171 114.456 151.687 114.456Z" fill="white"/>
<path d="M151.687 120.48C152.203 120.48 152.621 120.061 152.621 119.545C152.621 119.029 152.203 118.611 151.687 118.611C151.171 118.611 150.753 119.029 150.753 119.545C150.753 120.061 151.171 120.48 151.687 120.48Z" fill="white"/>
<path d="M151.687 126.503C152.203 126.503 152.621 126.085 152.621 125.569C152.621 125.053 152.203 124.634 151.687 124.634C151.171 124.634 150.752 125.053 150.752 125.569C150.752 126.085 151.171 126.503 151.687 126.503Z" fill="white"/>
<path d="M151.687 132.527C152.203 132.527 152.621 132.108 152.621 131.592C152.621 131.076 152.203 130.658 151.687 130.658C151.171 130.658 150.752 131.076 150.752 131.592C150.752 132.108 151.171 132.527 151.687 132.527Z" fill="white"/>
<path d="M151.687 138.55C152.203 138.55 152.621 138.132 152.621 137.616C152.621 137.1 152.203 136.682 151.687 136.682C151.171 136.682 150.752 137.1 150.752 137.616C150.752 138.132 151.171 138.55 151.687 138.55Z" fill="white"/>
<path d="M151.687 144.574C152.203 144.574 152.621 144.155 152.621 143.639C152.621 143.123 152.203 142.705 151.687 142.705C151.171 142.705 150.752 143.123 150.752 143.639C150.752 144.155 151.171 144.574 151.687 144.574Z" fill="white"/>
<path d="M148.562 145.83C148.046 145.83 147.628 146.249 147.628 146.765C147.628 147.281 148.046 147.699 148.562 147.699C149.078 147.699 149.496 147.281 149.496 146.765C149.496 146.249 149.078 145.83 148.562 145.83Z" fill="white"/>
<path d="M145.663 6.03352C146.179 6.03352 146.598 5.61526 146.598 5.09901C146.598 4.58276 146.179 4.16479 145.663 4.16479C145.148 4.16479 144.729 4.58306 144.729 5.09901C144.729 5.61495 145.148 6.03352 145.663 6.03352Z" fill="white"/>
<path d="M142.538 9.15894C143.054 9.15894 143.473 8.74067 143.473 8.22473C143.473 7.70879 143.054 7.29053 142.538 7.29053C142.022 7.29053 141.604 7.70879 141.604 8.22473C141.604 8.74037 142.022 9.15894 142.538 9.15894V9.15894Z" fill="white"/>
<path d="M142.538 13.3137C142.022 13.3137 141.604 13.732 141.604 14.2479C141.604 14.7639 142.022 15.1821 142.538 15.1821C143.054 15.1821 143.473 14.7639 143.473 14.2479C143.473 13.732 143.054 13.3137 142.538 13.3137Z" fill="white"/>
<path d="M145.663 18.0805C146.179 18.0805 146.598 17.6623 146.598 17.146C146.598 16.6301 146.179 16.2118 145.663 16.2118C145.148 16.2118 144.729 16.6301 144.729 17.146C144.729 17.6623 145.148 18.0805 145.663 18.0805Z" fill="white"/>
<path d="M142.538 19.3369C142.022 19.3369 141.604 19.7552 141.604 20.2714C141.604 20.7874 142.022 21.2056 142.538 21.2056C143.054 21.2056 143.473 20.7874 143.473 20.2714C143.473 19.7552 143.054 19.3369 142.538 19.3369V19.3369Z" fill="white"/>
<path d="M145.663 24.1041C146.179 24.1041 146.598 23.6859 146.598 23.1699C146.598 22.654 146.179 22.2357 145.663 22.2357C145.148 22.2357 144.729 22.654 144.729 23.1699C144.729 23.6859 145.148 24.1041 145.663 24.1041Z" fill="white"/>
<path d="M142.538 25.3607C142.022 25.3607 141.604 25.779 141.604 26.2949C141.604 26.8112 142.022 27.2294 142.538 27.2294C143.054 27.2294 143.473 26.8112 143.473 26.2949C143.473 25.7787 143.054 25.3607 142.538 25.3607Z" fill="white"/>
<path d="M145.663 30.1276C146.179 30.1276 146.598 29.7093 146.598 29.1934C146.598 28.6774 146.179 28.2592 145.663 28.2592C145.148 28.2592 144.729 28.6774 144.729 29.1934C144.729 29.7093 145.148 30.1276 145.663 30.1276Z" fill="white"/>
<path d="M142.538 31.3839C142.022 31.3839 141.604 31.8022 141.604 32.3184C141.604 32.8344 142.022 33.2526 142.538 33.2526C143.054 33.2526 143.473 32.8344 143.473 32.3184C143.473 31.8022 143.054 31.3839 142.538 31.3839Z" fill="white"/>
<path d="M145.663 36.1512C146.179 36.1512 146.598 35.7326 146.598 35.2167C146.598 34.7007 146.179 34.2825 145.663 34.2825C145.148 34.2825 144.729 34.7007 144.729 35.2167C144.729 35.7326 145.148 36.1512 145.663 36.1512Z" fill="white"/>
<path d="M142.538 37.4075C142.022 37.4075 141.604 37.8257 141.604 38.342C141.604 38.8579 142.022 39.2762 142.538 39.2762C143.054 39.2762 143.473 38.8579 143.473 38.342C143.473 37.8257 143.054 37.4075 142.538 37.4075Z" fill="white"/>
<path d="M145.663 42.1743C146.179 42.1743 146.598 41.756 146.598 41.2401C146.598 40.7242 146.179 40.3059 145.663 40.3059C145.148 40.3059 144.729 40.7242 144.729 41.2401C144.729 41.7564 145.148 42.1743 145.663 42.1743Z" fill="white"/>
<path d="M142.538 43.431C142.022 43.431 141.604 43.8493 141.604 44.3652C141.604 44.8815 142.022 45.2998 142.538 45.2998C143.054 45.2998 143.473 44.8815 143.473 44.3652C143.473 43.8493 143.054 43.431 142.538 43.431Z" fill="white"/>
<path d="M145.663 48.1978C146.179 48.1978 146.598 47.7795 146.598 47.2635C146.598 46.7473 146.179 46.3293 145.663 46.3293C145.148 46.3293 144.729 46.7476 144.729 47.2635C144.729 47.7795 145.148 48.1978 145.663 48.1978Z" fill="white"/>
<path d="M142.538 49.4545C142.022 49.4545 141.604 49.8727 141.604 50.3887C141.604 50.9049 142.022 51.3232 142.538 51.3232C143.054 51.3232 143.473 50.9049 143.473 50.3887C143.473 49.8727 143.054 49.4545 142.538 49.4545Z" fill="white"/>
<path d="M145.663 54.2211C146.179 54.2211 146.598 53.8028 146.598 53.2869C146.598 52.7709 146.179 52.3527 145.663 52.3527C145.148 52.3527 144.729 52.7709 144.729 53.2869C144.729 53.8031 145.148 54.2211 145.663 54.2211Z" fill="white"/>
<path d="M142.538 55.478C142.022 55.478 141.604 55.8963 141.604 56.4122C141.604 56.9285 142.022 57.3465 142.538 57.3465C143.054 57.3465 143.473 56.9282 143.473 56.4122C143.473 55.8963 143.054 55.478 142.538 55.478Z" fill="white"/>
<path d="M145.663 60.2449C146.179 60.2449 146.598 59.8267 146.598 59.3107C146.598 58.7945 146.179 58.3762 145.663 58.3762C145.148 58.3762 144.729 58.7945 144.729 59.3107C144.729 59.8267 145.148 60.2449 145.663 60.2449Z" fill="white"/>
<path d="M142.538 61.5012C142.022 61.5012 141.604 61.9195 141.604 62.4354C141.604 62.9517 142.022 63.3699 142.538 63.3699C143.054 63.3699 143.473 62.9517 143.473 62.4354C143.473 61.9195 143.054 61.5012 142.538 61.5012Z" fill="white"/>
<path d="M145.663 66.2684C146.179 66.2684 146.598 65.8502 146.598 65.3342C146.598 64.818 146.179 64.4 145.663 64.4C145.148 64.4 144.729 64.8183 144.729 65.3342C144.729 65.8502 145.148 66.2684 145.663 66.2684Z" fill="white"/>
<path d="M142.538 67.5248C142.022 67.5248 141.604 67.943 141.604 68.459C141.604 68.9749 142.022 69.3932 142.538 69.3932C143.054 69.3932 143.473 68.9749 143.473 68.459C143.473 67.9434 143.054 67.5248 142.538 67.5248Z" fill="white"/>
<path d="M145.663 72.2916C146.179 72.2916 146.598 71.8734 146.598 71.3574C146.598 70.8415 146.179 70.4232 145.663 70.4232C145.148 70.4232 144.729 70.8415 144.729 71.3574C144.729 71.8734 145.148 72.2916 145.663 72.2916Z" fill="white"/>
<path d="M142.538 73.5483C142.022 73.5483 141.604 73.9666 141.604 74.4825C141.604 74.9985 142.022 75.4167 142.538 75.4167C143.054 75.4167 143.473 74.9985 143.473 74.4825C143.473 73.9666 143.054 73.5483 142.538 73.5483Z" fill="white"/>
<path d="M145.663 78.3155C146.179 78.3155 146.598 77.8972 146.598 77.3813C146.598 76.865 146.179 76.4468 145.663 76.4468C145.148 76.4468 144.729 76.865 144.729 77.3813C144.729 77.8969 145.148 78.3155 145.663 78.3155Z" fill="white"/>
<path d="M142.538 79.5718C142.022 79.5718 141.604 79.99 141.604 80.506C141.604 81.0219 142.022 81.4402 142.538 81.4402C143.054 81.4402 143.473 81.0219 143.473 80.506C143.473 79.99 143.054 79.5718 142.538 79.5718Z" fill="white"/>
<path d="M145.663 84.3388C146.179 84.3388 146.598 83.9205 146.598 83.4045C146.598 82.8886 146.179 82.4703 145.663 82.4703C145.148 82.4703 144.729 82.8886 144.729 83.4045C144.729 83.9205 145.148 84.3388 145.663 84.3388Z" fill="white"/>
<path d="M142.538 85.595C142.022 85.595 141.604 86.0135 141.604 86.5292C141.604 87.0454 142.022 87.4637 142.538 87.4637C143.054 87.4637 143.473 87.0454 143.473 86.5292C143.473 86.0135 143.054 85.595 142.538 85.595Z" fill="white"/>
<path d="M145.663 90.3623C146.179 90.3623 146.598 89.944 146.598 89.4277C146.598 88.9118 146.179 88.4935 145.663 88.4935C145.148 88.4935 144.729 88.9118 144.729 89.4277C144.729 89.944 145.148 90.3623 145.663 90.3623Z" fill="white"/>
<path d="M142.538 91.6185C142.022 91.6185 141.604 92.0368 141.604 92.5531C141.604 93.0687 142.022 93.4873 142.538 93.4873C143.054 93.4873 143.473 93.0687 143.473 92.5531C143.473 92.0371 143.054 91.6185 142.538 91.6185Z" fill="white"/>
<path d="M145.663 96.3857C146.179 96.3857 146.598 95.9675 146.598 95.4515C146.598 94.9356 146.179 94.5173 145.663 94.5173C145.148 94.5173 144.729 94.9356 144.729 95.4515C144.729 95.9675 145.148 96.3857 145.663 96.3857Z" fill="white"/>
<path d="M142.538 97.6425C142.022 97.6425 141.604 98.0607 141.604 98.5767C141.604 99.0929 142.022 99.5109 142.538 99.5109C143.054 99.5109 143.473 99.0926 143.473 98.5767C143.473 98.0607 143.054 97.6425 142.538 97.6425Z" fill="white"/>
<path d="M145.663 102.409C146.179 102.409 146.598 101.991 146.598 101.475C146.598 100.958 146.179 100.541 145.663 100.541C145.148 100.541 144.729 100.959 144.729 101.475C144.729 101.991 145.148 102.409 145.663 102.409Z" fill="white"/>
<path d="M142.538 103.666C142.022 103.666 141.604 104.084 141.604 104.6C141.604 105.116 142.022 105.535 142.538 105.535C143.054 105.535 143.473 105.116 143.473 104.6C143.473 104.084 143.054 103.666 142.538 103.666Z" fill="white"/>
<path d="M145.663 108.433C146.179 108.433 146.598 108.014 146.598 107.498C146.598 106.982 146.179 106.564 145.663 106.564C145.148 106.564 144.729 106.982 144.729 107.498C144.729 108.014 145.148 108.433 145.663 108.433Z" fill="white"/>
<path d="M142.538 109.689C142.022 109.689 141.604 110.107 141.604 110.623C141.604 111.139 142.022 111.558 142.538 111.558C143.054 111.558 143.473 111.139 143.473 110.623C143.473 110.107 143.054 109.689 142.538 109.689Z" fill="white"/>
<path d="M145.663 114.456C146.179 114.456 146.598 114.038 146.598 113.522C146.598 113.006 146.179 112.588 145.663 112.588C145.148 112.588 144.729 113.006 144.729 113.522C144.729 114.038 145.148 114.456 145.663 114.456Z" fill="white"/>
<path d="M142.538 115.713C142.022 115.713 141.604 116.131 141.604 116.647C141.604 117.163 142.022 117.581 142.538 117.581C143.054 117.581 143.473 117.163 143.473 116.647C143.473 116.131 143.054 115.713 142.538 115.713Z" fill="white"/>
<path d="M145.663 120.48C146.179 120.48 146.598 120.061 146.598 119.545C146.598 119.029 146.179 118.611 145.663 118.611C145.148 118.611 144.729 119.029 144.729 119.545C144.729 120.061 145.148 120.48 145.663 120.48Z" fill="white"/>
<path d="M142.538 121.736C142.022 121.736 141.604 122.154 141.604 122.671C141.604 123.187 142.022 123.605 142.538 123.605C143.054 123.605 143.473 123.186 143.473 122.671C143.473 122.154 143.054 121.736 142.538 121.736Z" fill="white"/>
<path d="M145.663 126.503C146.179 126.503 146.598 126.085 146.598 125.569C146.598 125.053 146.179 124.634 145.663 124.634C145.148 124.634 144.729 125.053 144.729 125.569C144.729 126.085 145.148 126.503 145.663 126.503Z" fill="white"/>
<path d="M142.538 127.76C142.022 127.76 141.604 128.178 141.604 128.694C141.604 129.21 142.022 129.628 142.538 129.628C143.054 129.628 143.473 129.21 143.473 128.694C143.473 128.178 143.054 127.76 142.538 127.76Z" fill="white"/>
<path d="M145.663 132.527C146.179 132.527 146.598 132.108 146.598 131.592C146.598 131.076 146.179 130.658 145.663 130.658C145.148 130.658 144.729 131.076 144.729 131.592C144.729 132.108 145.148 132.527 145.663 132.527Z" fill="white"/>
<path d="M142.538 133.783C142.022 133.783 141.604 134.201 141.604 134.717C141.604 135.233 142.022 135.651 142.538 135.651C143.054 135.651 143.473 135.233 143.473 134.717C143.473 134.201 143.054 133.783 142.538 133.783Z" fill="white"/>
<path d="M145.663 138.55C146.179 138.55 146.598 138.132 146.598 137.616C146.598 137.1 146.179 136.682 145.663 136.682C145.148 136.682 144.729 137.1 144.729 137.616C144.729 138.132 145.148 138.55 145.663 138.55Z" fill="white"/>
<path d="M142.538 139.806C142.022 139.806 141.604 140.225 141.604 140.741C141.604 141.257 142.022 141.675 142.538 141.675C143.054 141.675 143.473 141.257 143.473 140.741C143.473 140.225 143.054 139.806 142.538 139.806Z" fill="white"/>
<path d="M145.663 148.728C145.148 148.728 144.729 149.146 144.729 149.663C144.729 150.178 145.148 150.597 145.663 150.597C146.179 150.597 146.598 150.178 146.598 149.663C146.598 149.147 146.179 148.728 145.663 148.728Z" fill="white"/>
<path d="M142.538 151.854C142.022 151.854 141.604 152.272 141.604 152.788C141.604 153.304 142.022 153.722 142.538 153.722C143.054 153.722 143.473 153.304 143.473 152.788C143.473 152.272 143.054 151.854 142.538 151.854Z" fill="white"/>
<path d="M139.64 136.681C139.124 136.681 138.705 137.1 138.705 137.616C138.705 138.132 139.124 138.55 139.64 138.55C140.156 138.55 140.574 138.132 140.574 137.616C140.574 137.1 140.156 136.681 139.64 136.681Z" fill="white"/>
<path d="M136.515 139.806C135.999 139.806 135.581 140.225 135.581 140.741C135.581 141.257 135.999 141.675 136.515 141.675C137.031 141.675 137.449 141.257 137.449 140.741C137.449 140.225 137.031 139.806 136.515 139.806Z" fill="white"/>
<path d="M139.64 142.705C139.124 142.705 138.705 143.123 138.705 143.639C138.705 144.155 139.124 144.574 139.64 144.574C140.156 144.574 140.574 144.155 140.574 143.639C140.574 143.123 140.156 142.705 139.64 142.705Z" fill="white"/>
<path d="M136.515 151.854C135.999 151.854 135.581 152.272 135.581 152.788C135.581 153.304 135.999 153.722 136.515 153.722C137.031 153.722 137.449 153.304 137.449 152.788C137.449 152.272 137.031 151.854 136.515 151.854Z" fill="white"/>
<path d="M133.616 142.705C133.1 142.705 132.682 143.123 132.682 143.639C132.682 144.155 133.1 144.574 133.616 144.574C134.132 144.574 134.551 144.155 134.551 143.639C134.551 143.123 134.132 142.705 133.616 142.705Z" fill="white"/>
<path d="M130.491 151.854C129.975 151.854 129.557 152.272 129.557 152.788C129.557 153.304 129.975 153.722 130.491 153.722C131.008 153.722 131.426 153.304 131.426 152.788C131.426 152.272 131.008 151.854 130.491 151.854Z" fill="white"/>
<path d="M127.593 142.705C127.077 142.705 126.659 143.123 126.659 143.639C126.659 144.155 127.077 144.574 127.593 144.574C128.109 144.574 128.527 144.155 128.527 143.639C128.527 143.123 128.109 142.705 127.593 142.705Z" fill="white"/>
<path d="M124.468 151.854C123.952 151.854 123.534 152.272 123.534 152.788C123.534 153.304 123.952 153.722 124.468 153.722C124.984 153.722 125.402 153.304 125.402 152.788C125.402 152.272 124.984 151.854 124.468 151.854Z" fill="white"/>
<path d="M121.57 142.705C121.054 142.705 120.636 143.123 120.636 143.639C120.636 144.155 121.054 144.574 121.57 144.574C122.086 144.574 122.504 144.155 122.504 143.639C122.504 143.123 122.086 142.705 121.57 142.705Z" fill="white"/>
<path d="M118.445 151.854C117.929 151.854 117.51 152.272 117.51 152.788C117.51 153.304 117.929 153.722 118.445 153.722C118.961 153.722 119.379 153.304 119.379 152.788C119.379 152.272 118.961 151.854 118.445 151.854Z" fill="white"/>
<path d="M115.546 142.705C115.03 142.705 114.612 143.123 114.612 143.639C114.612 144.155 115.03 144.574 115.546 144.574C116.062 144.574 116.48 144.155 116.48 143.639C116.48 143.123 116.062 142.705 115.546 142.705Z" fill="white"/>
<path d="M112.421 151.854C111.905 151.854 111.487 152.272 111.487 152.788C111.487 153.304 111.905 153.722 112.421 153.722C112.937 153.722 113.355 153.304 113.355 152.788C113.355 152.272 112.937 151.854 112.421 151.854Z" fill="white"/>
<path d="M109.523 142.705C109.007 142.705 108.588 143.123 108.588 143.639C108.588 144.155 109.007 144.574 109.523 144.574C110.039 144.574 110.457 144.155 110.457 143.639C110.457 143.123 110.039 142.705 109.523 142.705Z" fill="white"/>
<path d="M106.398 151.854C105.882 151.854 105.463 152.272 105.463 152.788C105.463 153.304 105.882 153.722 106.398 153.722C106.914 153.722 107.332 153.304 107.332 152.788C107.332 152.272 106.914 151.854 106.398 151.854Z" fill="white"/>
<path d="M103.499 142.705C102.983 142.705 102.565 143.123 102.565 143.639C102.565 144.155 102.983 144.574 103.499 144.574C104.015 144.574 104.434 144.155 104.434 143.639C104.434 143.123 104.015 142.705 103.499 142.705Z" fill="white"/>
<path d="M100.374 151.854C99.8579 151.854 99.4396 152.272 99.4396 152.788C99.4396 153.304 99.8579 153.722 100.374 153.722C100.89 153.722 101.308 153.304 101.308 152.788C101.309 152.272 100.89 151.854 100.374 151.854Z" fill="white"/>
<path d="M97.4756 142.705C96.9597 142.705 96.5414 143.123 96.5414 143.639C96.5414 144.155 96.9597 144.574 97.4756 144.574C97.9916 144.574 98.4098 144.155 98.4098 143.639C98.4101 143.123 97.9919 142.705 97.4756 142.705Z" fill="white"/>
<path d="M94.3506 151.854C93.8346 151.854 93.4164 152.272 93.4164 152.788C93.4164 153.304 93.8346 153.722 94.3506 153.722C94.8665 153.722 95.2848 153.304 95.2848 152.788C95.2848 152.272 94.8665 151.854 94.3506 151.854Z" fill="white"/>
<path d="M91.4524 142.705C90.9365 142.705 90.5182 143.123 90.5182 143.639C90.5182 144.155 90.9365 144.574 91.4524 144.574C91.9684 144.574 92.3866 144.155 92.3866 143.639C92.3866 143.123 91.9684 142.705 91.4524 142.705Z" fill="white"/>
<path d="M88.3271 151.854C87.8111 151.854 87.3929 152.272 87.3929 152.788C87.3929 153.304 87.8111 153.722 88.3271 153.722C88.843 153.722 89.2613 153.304 89.2613 152.788C89.2616 152.272 88.8433 151.854 88.3271 151.854Z" fill="white"/>
<path d="M85.4289 142.705C84.913 142.705 84.4944 143.123 84.4944 143.639C84.4944 144.155 84.9127 144.574 85.4289 144.574C85.9449 144.574 86.3631 144.155 86.3631 143.639C86.3631 143.123 85.9449 142.705 85.4289 142.705Z" fill="white"/>
<path d="M82.3039 151.854C81.7879 151.854 81.3694 152.272 81.3694 152.788C81.3694 153.304 81.7876 153.722 82.3039 153.722C82.8201 153.722 83.2381 153.304 83.2381 152.788C83.2381 152.272 82.8198 151.854 82.3039 151.854Z" fill="white"/>
<path d="M79.4054 142.705C78.8895 142.705 78.4712 143.123 78.4712 143.639C78.4712 144.155 78.8895 144.574 79.4054 144.574C79.9213 144.574 80.3399 144.155 80.3399 143.639C80.3399 143.123 79.9213 142.705 79.4054 142.705Z" fill="white"/>
<path d="M76.2804 151.854C75.7644 151.854 75.3462 152.272 75.3462 152.788C75.3462 153.304 75.7644 153.722 76.2804 153.722C76.7963 153.722 77.2146 153.304 77.2146 152.788C77.2146 152.272 76.7963 151.854 76.2804 151.854Z" fill="white"/>
<path d="M73.3819 142.705C72.866 142.705 72.4477 143.123 72.4477 143.639C72.4477 144.155 72.866 144.574 73.3819 144.574C73.8978 144.574 74.3161 144.155 74.3161 143.639C74.3164 143.123 73.8978 142.705 73.3819 142.705Z" fill="white"/>
<path d="M70.2568 151.854C69.7409 151.854 69.3226 152.272 69.3226 152.788C69.3226 153.304 69.7409 153.722 70.2568 153.722C70.7731 153.722 71.191 153.304 71.191 152.788C71.191 152.272 70.7728 151.854 70.2568 151.854Z" fill="white"/>
<path d="M67.3584 142.705C66.8424 142.705 66.4242 143.123 66.4242 143.639C66.4242 144.155 66.8424 144.574 67.3584 144.574C67.8743 144.574 68.2926 144.155 68.2926 143.639C68.2929 143.123 67.8743 142.705 67.3584 142.705Z" fill="white"/>
<path d="M64.2334 151.854C63.7174 151.854 63.2991 152.272 63.2991 152.788C63.2991 153.304 63.7174 153.722 64.2334 153.722C64.7493 153.722 65.1676 153.304 65.1676 152.788C65.1676 152.272 64.7493 151.854 64.2334 151.854Z" fill="white"/>
<path d="M61.3352 142.705C60.8192 142.705 60.401 143.123 60.401 143.639C60.401 144.155 60.8192 144.574 61.3352 144.574C61.8511 144.574 62.2694 144.155 62.2694 143.639C62.2694 143.123 61.8511 142.705 61.3352 142.705Z" fill="white"/>
<path d="M58.2098 151.854C57.6939 151.854 57.2753 152.272 57.2753 152.788C57.2753 153.304 57.6936 153.722 58.2098 153.722C58.7258 153.722 59.144 153.304 59.144 152.788C59.1443 152.272 58.7261 151.854 58.2098 151.854Z" fill="white"/>
<path d="M55.3117 142.705C54.7957 142.705 54.3775 143.123 54.3775 143.639C54.3775 144.155 54.7957 144.574 55.3117 144.574C55.8279 144.574 56.2459 144.155 56.2459 143.639C56.2459 143.123 55.8276 142.705 55.3117 142.705Z" fill="white"/>
<path d="M52.1866 151.854C51.6703 151.854 51.2524 152.272 51.2524 152.788C51.2524 153.304 51.6706 153.722 52.1866 153.722C52.7025 153.722 53.1208 153.304 53.1208 152.788C53.1208 152.272 52.7025 151.854 52.1866 151.854Z" fill="white"/>
<path d="M49.2882 142.705C48.7722 142.705 48.354 143.123 48.354 143.639C48.354 144.155 48.7722 144.574 49.2882 144.574C49.8041 144.574 50.2224 144.155 50.2224 143.639C50.2224 143.123 49.8041 142.705 49.2882 142.705Z" fill="white"/>
<path d="M46.1631 151.854C45.6468 151.854 45.2289 152.272 45.2289 152.788C45.2289 153.304 45.6471 153.722 46.1631 153.722C46.679 153.722 47.0973 153.304 47.0973 152.788C47.0973 152.272 46.679 151.854 46.1631 151.854Z" fill="white"/>
<path d="M43.2647 142.705C42.7487 142.705 42.3305 143.123 42.3305 143.639C42.3305 144.155 42.7487 144.574 43.2647 144.574C43.7806 144.574 44.1989 144.155 44.1989 143.639C44.1989 143.123 43.7806 142.705 43.2647 142.705Z" fill="white"/>
<path d="M40.1396 151.854C39.6236 151.854 39.2054 152.272 39.2054 152.788C39.2054 153.304 39.6236 153.722 40.1396 153.722C40.6555 153.722 41.0738 153.304 41.0738 152.788C41.0738 152.272 40.6555 151.854 40.1396 151.854Z" fill="white"/>
<path d="M37.2412 142.705C36.7252 142.705 36.307 143.123 36.307 143.639C36.307 144.155 36.7252 144.574 37.2412 144.574C37.7571 144.574 38.1757 144.155 38.1757 143.639C38.1757 143.123 37.7571 142.705 37.2412 142.705Z" fill="white"/>
<path d="M34.1161 151.854C33.6001 151.854 33.1819 152.272 33.1819 152.788C33.1819 153.304 33.6001 153.722 34.1161 153.722C34.632 153.722 35.0503 153.304 35.0503 152.788C35.0503 152.272 34.632 151.854 34.1161 151.854Z" fill="white"/>
<path d="M31.2176 142.705C30.7013 142.705 30.2834 143.123 30.2834 143.639C30.2834 144.155 30.7016 144.574 31.2176 144.574C31.7335 144.574 32.1518 144.155 32.1518 143.639C32.1521 143.123 31.7338 142.705 31.2176 142.705Z" fill="white"/>
<path d="M28.0926 151.854C27.5766 151.854 27.1584 152.272 27.1584 152.788C27.1584 153.304 27.5766 153.722 28.0926 153.722C28.6085 153.722 29.0268 153.304 29.0268 152.788C29.0268 152.272 28.6088 151.854 28.0926 151.854Z" fill="white"/>
<path d="M25.1944 142.705C24.6785 142.705 24.2602 143.123 24.2602 143.639C24.2602 144.155 24.6785 144.574 25.1944 144.574C25.7104 144.574 26.1286 144.155 26.1286 143.639C26.1286 143.123 25.7104 142.705 25.1944 142.705Z" fill="white"/>
<path d="M22.0691 151.854C21.5531 151.854 21.1349 152.272 21.1349 152.788C21.1349 153.304 21.5531 153.722 22.0691 153.722C22.585 153.722 23.0033 153.304 23.0033 152.788C23.0036 152.272 22.585 151.854 22.0691 151.854Z" fill="white"/>
<path d="M19.1708 142.705C18.6549 142.705 18.2366 143.123 18.2366 143.639C18.2366 144.155 18.6549 144.574 19.1708 144.574C19.6868 144.574 20.1051 144.155 20.1051 143.639C20.1051 143.123 19.6868 142.705 19.1708 142.705Z" fill="white"/>
<path d="M16.0456 151.854C15.5296 151.854 15.1114 152.272 15.1114 152.788C15.1114 153.304 15.5296 153.722 16.0456 153.722C16.5615 153.722 16.9801 153.304 16.9801 152.788C16.9801 152.272 16.5615 151.854 16.0456 151.854Z" fill="white"/>
<path d="M10.0223 145.83C9.5064 145.83 9.08813 146.249 9.08813 146.765C9.08813 147.281 9.5064 147.699 10.0223 147.699C10.5383 147.699 10.9566 147.281 10.9566 146.765C10.9566 146.249 10.5383 145.83 10.0223 145.83V145.83Z" fill="white"/>
<path d="M13.1474 148.728C12.6314 148.728 12.2129 149.146 12.2129 149.663C12.2129 150.178 12.6311 150.597 13.1474 150.597C13.6633 150.597 14.0816 150.178 14.0816 149.663C14.0816 149.147 13.6633 148.728 13.1474 148.728Z" fill="white"/>
<path d="M7.12386 142.705C6.60792 142.705 6.18935 143.123 6.18935 143.639C6.18935 144.155 6.60761 144.574 7.12386 144.574C7.63981 144.574 8.05807 144.155 8.05807 143.639C8.05807 143.123 7.63981 142.705 7.12386 142.705Z" fill="white"/>
<path d="M141.59 0.875H16.4099C7.84405 0.875 0.875 7.84376 0.875 16.4096V141.59C0.875 150.156 7.84405 157.125 16.4099 157.125H141.59C150.156 157.125 157.125 150.156 157.125 141.59V16.4096C157.125 7.84376 150.156 0.875 141.59 0.875V0.875ZM149.26 152.173C149.089 151.979 148.841 151.854 148.562 151.854C148.046 151.854 147.628 152.272 147.628 152.788C147.628 152.915 147.654 153.037 147.7 153.148C145.875 154.117 143.796 154.668 141.59 154.668H16.4099C14.3811 154.668 12.4584 154.203 10.7431 153.375C10.8745 153.214 10.9565 153.012 10.9565 152.788C10.9565 152.271 10.5383 151.854 10.0223 151.854C9.62152 151.854 9.28256 152.107 9.14998 152.461C8.33672 151.916 7.5896 151.281 6.91872 150.573C6.98486 150.587 7.05345 150.597 7.12418 150.597C7.64012 150.597 8.05839 150.178 8.05839 149.663C8.05839 149.146 7.64012 148.728 7.12418 148.728C6.60824 148.728 6.18967 149.146 6.18967 149.663C6.18967 149.691 6.19548 149.718 6.19824 149.746C5.61616 149.019 5.10971 148.228 4.69144 147.386C4.84025 147.221 4.93334 147.004 4.93334 146.764C4.93334 146.263 4.53834 145.858 4.04322 145.834C3.58485 144.502 3.33254 143.076 3.33254 141.59V16.4096C3.33254 9.19868 9.19928 3.33224 16.4102 3.33224H141.591C147.752 3.33224 152.928 7.61625 154.306 13.3611C153.927 13.4806 153.651 13.8302 153.651 14.2479C153.651 14.7638 154.069 15.1821 154.585 15.1821C154.593 15.1821 154.6 15.18 154.608 15.1796C154.646 15.5847 154.668 15.9947 154.668 16.4096V19.3452C154.641 19.3427 154.614 19.3369 154.586 19.3369C154.07 19.3369 153.651 19.7552 153.651 20.2714C153.651 20.7874 154.07 21.2056 154.586 21.2056C154.614 21.2056 154.641 21.1998 154.668 21.1974V25.369C154.641 25.3665 154.614 25.3607 154.586 25.3607C154.07 25.3607 153.651 25.779 153.651 26.2949C153.651 26.8112 154.07 27.2294 154.586 27.2294C154.614 27.2294 154.641 27.2233 154.668 27.2212V31.3928C154.641 31.3904 154.614 31.3846 154.586 31.3846C154.07 31.3846 153.651 31.8028 153.651 32.3191C153.651 32.835 154.07 33.2533 154.586 33.2533C154.614 33.2533 154.641 33.2475 154.668 33.245V37.4167C154.641 37.4142 154.614 37.4084 154.586 37.4084C154.07 37.4084 153.651 37.8266 153.651 38.3429C153.651 38.8588 154.07 39.2771 154.586 39.2771C154.614 39.2771 154.641 39.2713 154.668 39.2688V43.4402C154.641 43.4377 154.614 43.4319 154.586 43.4319C154.07 43.4319 153.651 43.8502 153.651 44.3661C153.651 44.8824 154.07 45.3006 154.586 45.3006C154.614 45.3006 154.641 45.2948 154.668 45.2924V49.464C154.641 49.4616 154.614 49.4557 154.586 49.4557C154.07 49.4557 153.651 49.874 153.651 50.3899C153.651 50.9062 154.07 51.3245 154.586 51.3245C154.614 51.3245 154.641 51.3183 154.668 51.3162V55.4875C154.641 55.4851 154.614 55.4793 154.586 55.4793C154.07 55.4793 153.651 55.8975 153.651 56.4135C153.651 56.9297 154.07 57.3477 154.586 57.3477C154.614 57.3477 154.641 57.3419 154.668 57.3394V61.5111C154.641 61.5086 154.614 61.5028 154.586 61.5028C154.07 61.5028 153.651 61.9211 153.651 62.437C153.651 62.9532 154.07 63.3715 154.586 63.3715C154.614 63.3715 154.641 63.3654 154.668 63.3632V67.5346C154.641 67.5321 154.614 67.5263 154.586 67.5263C154.07 67.5263 153.651 67.9446 153.651 68.4605C153.651 68.9765 154.07 69.3947 154.586 69.3947C154.614 69.3947 154.641 69.3889 154.668 69.3865V73.5578C154.641 73.5553 154.614 73.5495 154.586 73.5495C154.07 73.5495 153.651 73.9678 153.651 74.4837C153.651 74.9997 154.07 75.418 154.586 75.418C154.614 75.418 154.641 75.4121 154.668 75.4097V79.581C154.641 79.5786 154.614 79.5727 154.586 79.5727C154.07 79.5727 153.651 79.991 153.651 80.507C153.651 81.0229 154.07 81.4412 154.586 81.4412C154.614 81.4412 154.641 81.4353 154.668 81.4329V85.6045C154.641 85.6021 154.614 85.5963 154.586 85.5963C154.07 85.5963 153.651 86.0148 153.651 86.5305C153.651 87.0467 154.07 87.465 154.586 87.465C154.614 87.465 154.641 87.4592 154.668 87.4567V91.6284C154.641 91.6259 154.614 91.6201 154.586 91.6201C154.07 91.6201 153.651 92.0384 153.651 92.5546C153.651 93.0703 154.07 93.4888 154.586 93.4888C154.614 93.4888 154.641 93.483 154.668 93.4806V97.6519C154.641 97.6494 154.614 97.6436 154.586 97.6436C154.07 97.6436 153.651 98.0619 153.651 98.5778C153.651 99.0941 154.07 99.512 154.586 99.512C154.614 99.512 154.641 99.5062 154.668 99.5038V103.675C154.641 103.673 154.614 103.667 154.586 103.667C154.07 103.667 153.651 104.085 153.651 104.601C153.651 105.117 154.07 105.536 154.586 105.536C154.614 105.536 154.641 105.53 154.668 105.527V109.699C154.641 109.696 154.614 109.691 154.586 109.691C154.07 109.691 153.651 110.109 153.651 110.625C153.651 111.141 154.07 111.559 154.586 111.559C154.614 111.559 154.641 111.553 154.668 111.551V115.722C154.641 115.72 154.614 115.714 154.586 115.714C154.07 115.714 153.651 116.132 153.651 116.648C153.651 117.165 154.07 117.583 154.586 117.583C154.614 117.583 154.641 117.577 154.668 117.574V121.746C154.641 121.744 154.614 121.738 154.586 121.738C154.07 121.738 153.651 122.156 153.651 122.672C153.651 123.188 154.07 123.606 154.586 123.606C154.614 123.606 154.641 123.601 154.668 123.598V127.77C154.641 127.767 154.614 127.761 154.586 127.761C154.07 127.761 153.651 128.18 153.651 128.695C153.651 129.211 154.07 129.63 154.586 129.63C154.614 129.63 154.641 129.624 154.668 129.621V133.793C154.641 133.791 154.614 133.785 154.586 133.785C154.07 133.785 153.651 134.203 153.651 134.719C153.651 135.235 154.07 135.653 154.586 135.653C154.614 135.653 154.641 135.647 154.668 135.645V139.816C154.641 139.814 154.614 139.808 154.586 139.808C154.07 139.808 153.651 140.227 153.651 140.742C153.651 141.258 154.07 141.677 154.586 141.677C154.613 141.677 154.639 141.671 154.666 141.668C154.657 143.28 154.353 144.823 153.809 146.248C153.738 146.353 153.69 146.475 153.668 146.605C153.313 147.456 152.871 148.26 152.353 149.01C152.183 148.837 151.948 148.73 151.687 148.73C151.171 148.73 150.753 149.148 150.753 149.664C150.753 149.999 150.93 150.291 151.195 150.456C150.609 151.089 149.961 151.664 149.26 152.173V152.173Z" fill="white"/>
<path d="M83.3915 91.1936C84.07 91.1936 84.6199 90.6436 84.6199 89.9651C84.6199 89.2866 84.07 88.7363 83.3915 88.7363H76.4739C75.7953 88.7363 75.2454 89.2863 75.2454 89.9651V106.383C75.2454 107.061 75.7956 107.611 76.4739 107.611H83.3915C84.07 107.611 84.6199 107.061 84.6199 106.383C84.6199 105.704 84.07 105.154 83.3915 105.154H77.7023V99.4024H82.8813C83.5599 99.4024 84.1098 98.8525 84.1098 98.174C84.1098 97.4954 83.5599 96.9452 82.8813 96.9452H77.7023V91.1936H83.3915Z" fill="white"/>
<path d="M97.5461 105.154C95.6651 105.154 93.8472 104.386 92.6827 103.102C92.2274 102.599 91.45 102.56 90.9475 103.016C90.4444 103.472 90.4065 104.248 90.8621 104.751C92.4843 106.542 94.9829 107.611 97.5461 107.611C100.58 107.611 103.22 105.632 103.689 103.007C104.041 101.033 103.102 98.4379 99.4099 97.076C97.2356 96.274 95.2217 95.3974 94.7624 95.195C94.1421 94.7535 93.8395 94.0382 93.9504 93.2644C94.0857 92.3222 94.7992 91.5693 95.8592 91.2499C98.6523 90.4091 101.149 92.4211 101.197 92.46C101.716 92.8933 102.489 92.8253 102.924 92.3069C103.361 91.7876 103.294 91.0126 102.774 90.576C102.632 90.4566 99.2439 87.6634 95.1507 88.8971C93.1806 89.4908 91.7889 91.0301 91.518 92.915C91.2669 94.6634 92.0238 96.3448 93.4932 97.3029C93.5474 97.3384 93.6044 97.3693 93.6635 97.3956C93.7587 97.4382 96.0157 98.4425 98.559 99.381C100.515 100.102 101.503 101.267 101.269 102.575C101.046 103.825 99.6659 105.154 97.5461 105.154V105.154Z" fill="white"/>
<path d="M118.551 97.0763C116.376 96.2741 114.362 95.3977 113.903 95.1953C113.282 94.7538 112.98 94.0388 113.091 93.265C113.226 92.3229 113.94 91.5696 115 91.2503C117.798 90.4073 120.3 92.4297 120.338 92.4607C120.857 92.8942 121.63 92.8257 122.065 92.3076C122.501 91.7883 122.434 91.0133 121.915 90.5766C121.773 90.4569 118.385 87.6644 114.291 88.8978C112.321 89.4915 110.929 91.0307 110.659 92.9157C110.408 94.6644 111.164 96.3454 112.634 97.3035C112.688 97.339 112.745 97.3699 112.804 97.3963C112.899 97.4385 115.156 98.4432 117.7 99.3817C119.656 100.103 120.644 101.267 120.41 102.576C120.187 103.825 118.806 105.154 116.686 105.154C114.805 105.154 112.988 104.386 111.823 103.101C111.367 102.599 110.591 102.561 110.087 103.016C109.585 103.472 109.547 104.248 110.002 104.751C111.625 106.542 114.123 107.61 116.686 107.61C119.719 107.61 122.361 105.631 122.829 103.007C123.182 101.033 122.243 98.4383 118.551 97.0763V97.0763Z" fill="white"/>
<path d="M69.3217 94.12C69.3217 91.0681 66.7295 88.5854 63.5432 88.5854H59.1407C59.1397 88.5854 59.1388 88.5857 59.1379 88.5857C59.137 88.5857 59.1361 88.5854 59.1351 88.5854C58.4566 88.5854 57.9064 89.1354 57.9064 89.8139V106.383C57.9064 107.061 58.4566 107.611 59.1351 107.611C59.8137 107.611 60.3636 107.061 60.3636 106.383V99.667C60.4227 99.6667 60.483 99.6661 60.5446 99.6661L67.1707 107.194C67.4135 107.47 67.7525 107.611 68.0936 107.611C68.3817 107.611 68.6714 107.51 68.9047 107.305C69.4139 106.856 69.4635 106.08 69.0152 105.571L63.7973 99.6419C66.8654 99.5133 69.3217 97.0898 69.3217 94.12V94.12ZM63.5432 97.1976C62.8181 97.1976 61.4157 97.204 60.3924 97.2095C60.3866 96.2003 60.3798 94.8258 60.3798 94.12C60.3798 93.5284 60.3759 92.0948 60.3728 91.0427H63.5429C65.3433 91.0427 66.8642 92.4521 66.8642 94.12C66.8645 95.7881 65.3433 97.1976 63.5432 97.1976V97.1976Z" fill="white"/>
<path d="M45.9871 88.5857H41.3736C41.2912 88.5857 41.2098 88.594 41.1302 88.6105C41.0766 88.6212 41.0261 88.6399 40.9752 88.6577C40.9504 88.6659 40.9247 88.6705 40.9008 88.6806C40.8433 88.7045 40.79 88.736 40.7373 88.7682C40.7217 88.7777 40.7046 88.7838 40.6896 88.7939C40.6228 88.8386 40.5607 88.8894 40.5043 88.9464C40.504 88.9467 40.5037 88.9467 40.5034 88.947C40.4945 88.9559 40.4881 88.9672 40.4792 88.9767C40.4336 89.0254 40.3898 89.0762 40.3524 89.1319C40.3387 89.1528 40.3295 89.1757 40.3169 89.1972C40.2891 89.2446 40.2606 89.2921 40.2395 89.3435C40.2284 89.3699 40.2229 89.3987 40.2137 89.4256C40.1975 89.4743 40.1794 89.522 40.1693 89.5732C40.1589 89.6252 40.1568 89.6794 40.1531 89.733C40.1513 89.7603 40.1448 89.7863 40.1448 89.8142V106.383C40.1448 107.061 40.6951 107.611 41.3733 107.611C42.0518 107.611 42.6021 107.061 42.6021 106.383V100.408C43.6771 100.402 45.2069 100.394 45.9868 100.394C49.2928 100.394 51.9824 97.7456 51.9824 94.4901C51.9824 91.2346 49.2931 88.5857 45.9871 88.5857V88.5857ZM45.9871 97.9367C45.2133 97.9367 43.7035 97.944 42.6275 97.9501C42.6214 96.8463 42.6137 95.2807 42.6137 94.4898C42.6137 93.8275 42.6091 92.1924 42.606 91.0426H45.9874C47.9054 91.0426 49.5258 92.6211 49.5258 94.4898C49.5255 96.3582 47.9051 97.9367 45.9871 97.9367V97.9367Z" fill="white"/>
<path d="M81.1661 117.494C81.1618 117.482 81.1572 117.471 81.1529 117.46C80.9043 116.856 80.3225 116.466 79.6694 116.466C79.6691 116.466 79.6681 116.466 79.6678 116.466C79.0144 116.467 78.432 116.858 78.1736 117.491L71.952 133.826C71.7107 134.461 72.0288 135.17 72.6629 135.412C73.298 135.654 74.0065 135.335 74.2484 134.701L75.4965 131.424H83.7966L85.0321 134.698C85.218 135.19 85.6852 135.493 86.1819 135.493C86.3258 135.493 86.4725 135.467 86.6152 135.413C87.2502 135.174 87.5705 134.465 87.3307 133.83L81.1661 117.494ZM76.4322 128.967L79.6654 120.477L82.8694 128.967H76.4322Z" fill="white"/>
<path d="M64.7196 116.466H55.5695C54.891 116.466 54.341 117.017 54.341 117.695C54.341 118.374 54.891 118.924 55.5695 118.924H58.8972V134.264C58.8972 134.942 59.4475 135.492 60.1257 135.492C60.8039 135.492 61.3542 134.942 61.3542 134.264V118.924H64.7193C65.3978 118.924 65.9477 118.374 65.9477 117.695C65.948 117.017 65.3981 116.466 64.7196 116.466Z" fill="white"/>
<path d="M122.28 117.695C122.28 117.016 121.73 116.466 121.052 116.466H111.902C111.223 116.466 110.673 117.016 110.673 117.695C110.673 118.373 111.223 118.923 111.902 118.923H115.23V134.263C115.23 134.942 115.78 135.492 116.458 135.492C117.137 135.492 117.687 134.942 117.687 134.263V118.923H121.052C121.73 118.923 122.28 118.373 122.28 117.695Z" fill="white"/>
<path d="M104.749 122.001C104.749 118.949 102.157 116.466 98.9705 116.466H94.568C94.5671 116.466 94.5662 116.467 94.5653 116.467C94.5643 116.467 94.5634 116.466 94.5625 116.466C93.884 116.466 93.3337 117.017 93.3337 117.695V134.264C93.3337 134.942 93.884 135.492 94.5625 135.492C95.241 135.492 95.791 134.942 95.791 134.264V127.548C95.8501 127.548 95.9104 127.547 95.9719 127.547L102.598 135.075C102.841 135.351 103.179 135.492 103.521 135.492C103.809 135.492 104.098 135.391 104.332 135.186C104.841 134.738 104.891 133.962 104.442 133.452L99.2244 127.523C102.293 127.394 104.749 124.971 104.749 122.001V122.001ZM98.9708 125.079C98.2457 125.079 96.8434 125.085 95.82 125.091C95.8145 124.082 95.8075 122.707 95.8075 122.001C95.8075 121.41 95.8035 119.976 95.8005 118.924H98.9708C100.771 118.924 102.292 120.333 102.292 122.001C102.292 123.669 100.771 125.079 98.9708 125.079V125.079Z" fill="white"/>
<path d="M44.0666 124.957C41.892 124.155 39.8781 123.278 39.4188 123.076C38.7984 122.635 38.4959 121.92 38.6071 121.146C38.7421 120.204 39.4555 119.45 40.5156 119.131C43.3145 118.289 45.8162 120.311 45.8538 120.341C46.3728 120.775 47.1457 120.707 47.5808 120.188C48.0174 119.669 47.9504 118.894 47.4311 118.457C47.289 118.338 43.9006 115.545 39.8068 116.778C37.837 117.372 36.4453 118.912 36.1746 120.797C35.9236 122.545 36.6808 124.226 38.1499 125.184C38.2041 125.219 38.2614 125.251 38.3202 125.277C38.4151 125.319 40.6721 126.324 43.216 127.262C45.1719 127.984 46.1597 129.148 45.9261 130.457C45.7029 131.707 44.3222 133.035 42.2024 133.035C40.3218 133.035 38.5036 132.268 37.3388 130.982C36.8835 130.48 36.1067 130.441 35.6033 130.897C35.1005 131.353 35.0625 132.13 35.5181 132.632C37.141 134.423 39.6399 135.492 42.2024 135.492C45.2359 135.492 47.8766 133.513 48.3451 130.888C48.6978 128.914 47.759 126.319 44.0666 124.957V124.957Z" fill="white"/>
<path d="M111.928 48.295C111.928 46.4232 110.879 44.7572 109.191 43.9482L63.7823 22.1763C62.2792 21.4559 60.54 21.556 59.1296 22.444C57.719 23.3319 56.877 24.8571 56.877 26.5237V70.0666C56.877 71.7332 57.7193 73.2584 59.1296 74.1464C59.9153 74.6409 60.803 74.891 61.695 74.891C62.4044 74.891 63.1163 74.7327 63.7823 74.4137L109.192 52.6427C110.879 51.8331 111.928 50.1671 111.928 48.295ZM108.129 50.4268L62.7195 72.198C61.9718 72.5566 61.1401 72.5088 60.438 72.067C59.7362 71.6251 59.3336 70.8961 59.3336 70.0666V26.5237C59.3336 25.6945 59.7359 24.9652 60.438 24.5233C60.8284 24.2778 61.2583 24.1538 61.6922 24.1538C62.0385 24.1538 62.3876 24.2328 62.7195 24.392L108.129 46.1636C108.969 46.5665 109.471 47.3632 109.471 48.295C109.471 49.2271 108.969 50.0241 108.129 50.4268V50.4268Z" fill="white"/>
</svg>